<mxfile host="app.diagrams.net" modified="2024-05-29T14:57:09.088Z" agent="Mozilla/5.0 (Windows NT 10.0; Win64; x64) AppleWebKit/537.36 (KHTML, like Gecko) Chrome/125.0.0.0 Safari/537.36" etag="6Db60Ccm5oWuGdfaXNLC" version="24.4.9" type="google">
  <diagram name="Страница — 1" id="KkIfbsw8kKaBgBwjYmnt">
    <mxGraphModel grid="1" page="1" gridSize="10" guides="1" tooltips="1" connect="1" arrows="1" fold="1" pageScale="1" pageWidth="827" pageHeight="1169" math="0" shadow="0">
      <root>
        <mxCell id="0" />
        <mxCell id="1" parent="0" />
        <mxCell id="yJN_NLUe_klkFVWXTJWy-18" style="edgeStyle=orthogonalEdgeStyle;rounded=0;orthogonalLoop=1;jettySize=auto;html=1;entryX=0.5;entryY=0;entryDx=0;entryDy=0;" edge="1" parent="1" source="yJN_NLUe_klkFVWXTJWy-1" target="yJN_NLUe_klkFVWXTJWy-2">
          <mxGeometry relative="1" as="geometry" />
        </mxCell>
        <mxCell id="yJN_NLUe_klkFVWXTJWy-1" value="&lt;font style=&quot;font-size: 14px;&quot;&gt;Отримання карт ознак&lt;/font&gt;" style="rounded=0;whiteSpace=wrap;html=1;" vertex="1" parent="1">
          <mxGeometry x="280" y="70" width="150" height="60" as="geometry" />
        </mxCell>
        <mxCell id="yJN_NLUe_klkFVWXTJWy-19" style="edgeStyle=orthogonalEdgeStyle;rounded=0;orthogonalLoop=1;jettySize=auto;html=1;entryX=0.5;entryY=0;entryDx=0;entryDy=0;" edge="1" parent="1" source="yJN_NLUe_klkFVWXTJWy-2" target="yJN_NLUe_klkFVWXTJWy-3">
          <mxGeometry relative="1" as="geometry" />
        </mxCell>
        <mxCell id="yJN_NLUe_klkFVWXTJWy-2" value="&lt;font style=&quot;font-size: 14px;&quot;&gt;Генерація обмежувальних рамок за замовчуванням для кожної карти ознак&lt;/font&gt;" style="rounded=0;whiteSpace=wrap;html=1;" vertex="1" parent="1">
          <mxGeometry x="280" y="180" width="150" height="80" as="geometry" />
        </mxCell>
        <mxCell id="yJN_NLUe_klkFVWXTJWy-20" style="edgeStyle=orthogonalEdgeStyle;rounded=0;orthogonalLoop=1;jettySize=auto;html=1;entryX=0.5;entryY=0;entryDx=0;entryDy=0;" edge="1" parent="1" source="yJN_NLUe_klkFVWXTJWy-3" target="yJN_NLUe_klkFVWXTJWy-4">
          <mxGeometry relative="1" as="geometry" />
        </mxCell>
        <mxCell id="yJN_NLUe_klkFVWXTJWy-3" value="&lt;font style=&quot;font-size: 14px;&quot;&gt;Передбачення класу об&#39;єкту в кожній рамці&lt;/font&gt;" style="rounded=0;whiteSpace=wrap;html=1;" vertex="1" parent="1">
          <mxGeometry x="280" y="310" width="150" height="60" as="geometry" />
        </mxCell>
        <mxCell id="yJN_NLUe_klkFVWXTJWy-21" style="edgeStyle=orthogonalEdgeStyle;rounded=0;orthogonalLoop=1;jettySize=auto;html=1;entryX=0.5;entryY=0;entryDx=0;entryDy=0;" edge="1" parent="1" source="yJN_NLUe_klkFVWXTJWy-4" target="yJN_NLUe_klkFVWXTJWy-6">
          <mxGeometry relative="1" as="geometry" />
        </mxCell>
        <mxCell id="yJN_NLUe_klkFVWXTJWy-4" value="&lt;font style=&quot;font-size: 14px;&quot;&gt;Передбачення зсувів по кординатам для кожної рамки&lt;/font&gt;" style="rounded=0;whiteSpace=wrap;html=1;" vertex="1" parent="1">
          <mxGeometry x="280" y="420" width="150" height="60" as="geometry" />
        </mxCell>
        <mxCell id="yJN_NLUe_klkFVWXTJWy-6" value="&lt;font style=&quot;font-size: 14px;&quot;&gt;Вибір локальних максимумів&lt;/font&gt;" style="rounded=0;whiteSpace=wrap;html=1;" vertex="1" parent="1">
          <mxGeometry x="280" y="540" width="150" height="60" as="geometry" />
        </mxCell>
        <mxCell id="yJN_NLUe_klkFVWXTJWy-9" value="&lt;span style=&quot;color: rgb(0, 0, 0); font-family: Helvetica; font-size: 14px; font-style: normal; font-variant-ligatures: normal; font-variant-caps: normal; font-weight: 400; letter-spacing: normal; orphans: 2; text-align: center; text-indent: 0px; text-transform: none; widows: 2; word-spacing: 0px; -webkit-text-stroke-width: 0px; white-space: normal; background-color: rgb(251, 251, 251); text-decoration-thickness: initial; text-decoration-style: initial; text-decoration-color: initial; display: inline !important; float: none;&quot;&gt;Другий етап&lt;/span&gt;" style="text;whiteSpace=wrap;html=1;" vertex="1" parent="1">
          <mxGeometry x="480" y="205" width="120" height="30" as="geometry" />
        </mxCell>
        <mxCell id="yJN_NLUe_klkFVWXTJWy-10" value="" style="endArrow=none;html=1;rounded=0;" edge="1" parent="1">
          <mxGeometry width="50" height="50" relative="1" as="geometry">
            <mxPoint x="470" y="290" as="sourcePoint" />
            <mxPoint x="410" y="290" as="targetPoint" />
          </mxGeometry>
        </mxCell>
        <mxCell id="yJN_NLUe_klkFVWXTJWy-11" value="" style="endArrow=none;html=1;rounded=0;" edge="1" parent="1">
          <mxGeometry width="50" height="50" relative="1" as="geometry">
            <mxPoint x="470" y="290" as="sourcePoint" />
            <mxPoint x="470" y="500" as="targetPoint" />
          </mxGeometry>
        </mxCell>
        <mxCell id="yJN_NLUe_klkFVWXTJWy-12" value="" style="endArrow=none;html=1;rounded=0;" edge="1" parent="1">
          <mxGeometry width="50" height="50" relative="1" as="geometry">
            <mxPoint x="410" y="500" as="sourcePoint" />
            <mxPoint x="470" y="500" as="targetPoint" />
          </mxGeometry>
        </mxCell>
        <mxCell id="yJN_NLUe_klkFVWXTJWy-15" value="&lt;span style=&quot;color: rgb(0, 0, 0); font-family: Helvetica; font-size: 14px; font-style: normal; font-variant-ligatures: normal; font-variant-caps: normal; font-weight: 400; letter-spacing: normal; orphans: 2; text-align: center; text-indent: 0px; text-transform: none; widows: 2; word-spacing: 0px; -webkit-text-stroke-width: 0px; white-space: normal; background-color: rgb(251, 251, 251); text-decoration-thickness: initial; text-decoration-style: initial; text-decoration-color: initial; display: inline !important; float: none;&quot;&gt;Перший етап&lt;/span&gt;" style="text;whiteSpace=wrap;html=1;" vertex="1" parent="1">
          <mxGeometry x="480" y="85" width="120" height="30" as="geometry" />
        </mxCell>
        <mxCell id="yJN_NLUe_klkFVWXTJWy-16" value="&lt;span style=&quot;color: rgb(0, 0, 0); font-family: Helvetica; font-size: 14px; font-style: normal; font-variant-ligatures: normal; font-variant-caps: normal; font-weight: 400; letter-spacing: normal; orphans: 2; text-align: center; text-indent: 0px; text-transform: none; widows: 2; word-spacing: 0px; -webkit-text-stroke-width: 0px; white-space: normal; background-color: rgb(251, 251, 251); text-decoration-thickness: initial; text-decoration-style: initial; text-decoration-color: initial; display: inline !important; float: none;&quot;&gt;Третій етап&lt;/span&gt;" style="text;whiteSpace=wrap;html=1;" vertex="1" parent="1">
          <mxGeometry x="480" y="380" width="120" height="30" as="geometry" />
        </mxCell>
        <mxCell id="yJN_NLUe_klkFVWXTJWy-17" value="&lt;span style=&quot;color: rgb(0, 0, 0); font-family: Helvetica; font-size: 14px; font-style: normal; font-variant-ligatures: normal; font-variant-caps: normal; font-weight: 400; letter-spacing: normal; orphans: 2; text-align: center; text-indent: 0px; text-transform: none; widows: 2; word-spacing: 0px; -webkit-text-stroke-width: 0px; white-space: normal; background-color: rgb(251, 251, 251); text-decoration-thickness: initial; text-decoration-style: initial; text-decoration-color: initial; display: inline !important; float: none;&quot;&gt;Четвертий етап&lt;/span&gt;" style="text;whiteSpace=wrap;html=1;" vertex="1" parent="1">
          <mxGeometry x="480" y="555" width="120" height="30" as="geometry" />
        </mxCell>
      </root>
    </mxGraphModel>
  </diagram>
</mxfile>
